<?xml version="1.0" encoding="UTF-8"?>
<svg xmlns="http://www.w3.org/2000/svg" viewBox="0 0 240 240" width="240" height="240">
  <rect width="240" height="240" rx="32" fill="#F4F3F8" stroke="#DDD8EE" stroke-width="3"/>
  
      <!-- Planet Sphere -->
      <circle cx="120" cy="120" r="48" fill="#EDE6F2" stroke="#59446B" stroke-width="4"/>
      <!-- Atmospheric striping -->
      <path d="M78 108 C100 118 140 118 162 108 M82 132 C105 142 135 142 158 132" stroke="#8E7DBE" stroke-width="2.5" stroke-linecap="round"/>
      <!-- Front Tilted Ring -->
      <path d="M35 135 C52 102 188 85 205 110 C222 135 68 165 35 135 Z" fill="none" stroke="#C86D51" stroke-width="4.5"/>
      <!-- Twinkling Constellation Stars -->
      <path d="M50 50 L50 64 M43 57 L57 57" stroke="#E07A5F" stroke-width="3" stroke-linecap="round"/>
      <path d="M190 180 L190 194 M183 187 L197 187" stroke="#8E7DBE" stroke-width="3" stroke-linecap="round"/>
      <circle cx="195" cy="55" r="3" fill="#59446B"/>
      <circle cx="45" cy="185" r="3.5" fill="#E07A5F"/>
      <circle cx="120" cy="20" r="2.5" fill="#8E7DBE"/>
    
</svg>