<?xml version="1.0" encoding="UTF-8"?>
<svg xmlns="http://www.w3.org/2000/svg" viewBox="0 0 240 240" width="240" height="240">
  <rect width="240" height="240" rx="32" fill="#FAF7EE" stroke="#E6DCB8" stroke-width="3"/>
  
      <!-- Rising Sun with Warm Glow -->
      <circle cx="120" cy="115" r="42" fill="#FEE9B5" stroke="#E07A5F" stroke-width="3.5"/>
      <path d="M120 55 L120 40 M75 75 L62 62 M165 75 L178 62 M45 115 L30 115 M195 115 L210 115" stroke="#E07A5F" stroke-width="3.5" stroke-linecap="round"/>
      <!-- Background Peak -->
      <path d="M110 185 L165 95 L225 185 Z" fill="#D6E2D8" stroke="#4F6B57" stroke-width="3.5" stroke-linejoin="round"/>
      <path d="M165 95 L175 185" stroke="#4F6B57" stroke-width="2.5" stroke-linecap="round"/>
      <!-- Foreground Peak (Dark Forest) -->
      <path d="M25 185 L95 80 L160 185 Z" fill="#4F6B57" stroke="#243327" stroke-width="4" stroke-linejoin="round"/>
      <path d="M95 80 L105 185" stroke="#243327" stroke-width="3" stroke-linecap="round"/>
      <!-- Snow cap -->
      <path d="M95 80 L80 105 L90 102 L98 108 L108 100 L115 110 L125 105 L95 80" fill="#FFFFFF"/>
      <!-- Ground line -->
      <path d="M15 185 L225 185" stroke="#243327" stroke-width="4" stroke-linecap="round"/>
      <path d="M35 198 L205 198" stroke="#78897B" stroke-width="2.5" stroke-linecap="round"/>
    
</svg>